<?xml version="1.0" encoding="utf-8"?>
<!-- Generator: Adobe Illustrator 24.0.0, SVG Export Plug-In . SVG Version: 6.00 Build 0)  -->
<svg version="1.1" xmlns="http://www.w3.org/2000/svg" xmlns:xlink="http://www.w3.org/1999/xlink" x="0px" y="0px"
	 viewBox="0 0 436.79 229.68" style="enable-background:new 0 0 436.79 229.68;" xml:space="preserve">
<style type="text/css">
	.st0{fill:#5D5D5D;}
	.st1{fill:none;stroke:#FFFFFF;stroke-width:8;}
	.st2{fill:none;stroke:#FFFFFF;stroke-width:3;stroke-linecap:round;}
	.st3{fill:#FFFFFF;}
	.st4{fill:none;stroke:#231815;stroke-width:8;}
	.st5{fill:none;stroke:#231815;stroke-width:3;stroke-linecap:round;}
	.st6{fill:#231815;}
	.st7{display:none;}
	.st8{display:inline;fill:none;stroke:#E60012;stroke-miterlimit:10;}
</style>
<g id="Layer_3">
</g>
<g id="Layer_2">
	<g>
		<g>
			<path class="st1" d="M72.35,201.93c-10.37,0-21.22-1.73-32.56-5.18s-21.65-8.21-30.94-14.26c-2.59-1.94-4.1-4.42-4.54-7.45
				C4.11,174.4,4,173.75,4,173.1c0-2.59,0.76-4.97,2.27-7.13l12.96-17.82c1.73-2.59,4.16-4.16,7.29-4.7
				c3.13-0.54,5.99,0.06,8.59,1.78c13.61,8.86,26.45,13.28,38.55,13.28c14.9,0,22.35-4.97,22.35-14.9c0-1.51-0.32-2.97-0.97-4.37
				c-0.65-1.4-1.78-2.75-3.4-4.05c-1.62-1.3-3.08-2.43-4.37-3.4c-1.3-0.97-3.35-2.05-6.16-3.24c-2.81-1.18-5.02-2.16-6.64-2.92
				c-1.62-0.75-4.32-1.83-8.1-3.24c-3.78-1.4-6.43-2.43-7.94-3.08c-6.48-2.59-12.31-5.35-17.49-8.26
				c-5.18-2.92-10.32-6.53-15.39-10.85c-5.08-4.32-9.07-9.56-11.99-15.71c-2.92-6.15-4.37-13.01-4.37-20.57
				c0-17.92,6.69-32.4,20.09-43.41C42.66,9.51,60.37,4,82.4,4c20.3,0,39.63,5.94,57.99,17.82c2.59,1.51,4.16,3.84,4.7,6.96
				c0.54,3.13-0.16,5.99-2.11,8.59l-12.63,16.84c-1.94,2.59-4.54,4.16-7.77,4.7c-3.24,0.54-6.16-0.05-8.75-1.78
				c-11.01-6.48-20.84-9.72-29.48-9.72c-13.39,0-20.08,4.54-20.08,13.61c0,1.3,0.21,2.48,0.65,3.56c0.43,1.08,1.08,2.11,1.94,3.08
				c0.86,0.97,1.73,1.89,2.59,2.75c0.86,0.87,2.11,1.67,3.73,2.43c1.62,0.76,3.08,1.46,4.37,2.11c1.29,0.65,3.08,1.41,5.34,2.27
				c2.27,0.87,4.16,1.57,5.67,2.11c1.51,0.54,3.56,1.25,6.15,2.11c2.59,0.87,4.75,1.62,6.48,2.27c6.91,2.59,12.9,5.24,17.98,7.94
				c5.07,2.7,10.25,6.27,15.55,10.69c5.29,4.43,9.28,9.83,11.99,16.2c2.7,6.37,4.05,13.66,4.05,21.87
				c0,18.14-6.86,32.94-20.57,44.38C116.46,196.21,97.19,201.93,72.35,201.93z"/>
		</g>
		<path class="st2" d="M121.24,34.89c0,0-18.18-10.43-39.46-10.43c-16.63,0-44.95,5.21-44.67,39.18
			c0.18,22.13,25.09,31.46,44.79,39.4c24.33,9.81,43.12,13.02,43.12,39.05c0,25.84-21.62,38.14-44.55,38.14
			c-32.69,0-50.73-13.84-50.73-13.84"/>
		<path class="st3" d="M191.44,206.97c-1.16,0-2.14-0.41-2.95-1.22c-0.81-0.81-1.22-1.79-1.22-2.95v-82.98
			c0-1.16,0.41-2.12,1.22-2.89c0.81-0.77,1.79-1.16,2.95-1.16h5.67c1.08,0,2.03,0.39,2.84,1.16c0.81,0.77,1.22,1.74,1.22,2.89
			l-0.12,17.82l-0.69,12.15c0,0.08,0.04,0.14,0.12,0.17c0.08,0.04,0.15,0.02,0.23-0.06c2.7-3.09,5.4-5.5,8.1-7.23
			c2.7-1.74,5.71-2.6,9.03-2.6c5.56,0,9.62,1.95,12.21,5.84c2.58,3.9,3.88,9.66,3.88,17.3v39.58c0,1.16-0.41,2.14-1.22,2.95
			c-0.81,0.81-1.79,1.22-2.95,1.22h-5.44c-1.16,0-2.14-0.41-2.95-1.22c-0.81-0.81-1.22-1.79-1.22-2.95V164.5
			c0-4.47-0.6-7.72-1.79-9.72c-1.2-2.01-3.22-3.01-6.08-3.01c-3.7,0-7.29,2.7-10.76,8.1c-0.23,0.31-0.35,0.62-0.35,0.93v42.01
			c0,1.16-0.41,2.14-1.22,2.95c-0.81,0.81-1.76,1.22-2.84,1.22H191.44z"/>
		<path class="st3" d="M271.26,208.36c-5.17,0-9.26-1.58-12.27-4.75c-3.01-3.16-4.51-7.6-4.51-13.31c0-7.02,2.72-12.5,8.16-16.43
			c5.44-3.93,13.56-6.71,24.36-8.33c0.39,0,0.58-0.19,0.58-0.58c-0.08-4.09-1-7.43-2.78-10.01c-1.78-2.58-4.32-3.88-7.64-3.88
			c-3.47,0-7.41,1.31-11.8,3.93c-1,0.62-2.04,0.79-3.12,0.52c-1.08-0.27-1.89-0.91-2.43-1.91l-1.27-1.97
			c-0.54-1-0.68-2.06-0.41-3.18c0.27-1.12,0.91-1.95,1.91-2.49c6.87-3.93,13.38-5.9,19.56-5.9c6.87,0,12.19,2.3,15.97,6.89
			c3.78,4.59,5.67,11.05,5.67,19.39v36.46c0,1.16-0.41,2.14-1.22,2.95c-0.81,0.81-1.79,1.22-2.95,1.22h-2.89
			c-1.16,0-2.2-0.39-3.12-1.16c-0.93-0.77-1.47-1.74-1.62-2.89l-0.58-3.59c0-0.15-0.06-0.23-0.17-0.23c-0.12,0-0.21,0.08-0.29,0.23
			C283.37,205.35,277.66,208.36,271.26,208.36z M275.54,197.72c3.78,0,7.68-2.31,11.69-6.94c0.23-0.23,0.35-0.54,0.35-0.93v-15.28
			c0-0.31-0.12-0.46-0.35-0.46c-0.08,0-0.16,0-0.23,0c-7.1,1.31-12.09,3.12-14.99,5.44s-4.34,5.4-4.34,9.26
			c0,3.09,0.73,5.34,2.2,6.77C271.33,197,273.22,197.72,275.54,197.72z"/>
		<path class="st3" d="M415.96,208.36c-8.1,0-14.8-3.05-20.08-9.14c-5.29-6.1-7.93-14.39-7.93-24.88c0-10.18,2.56-18.44,7.7-24.77
			c5.13-6.33,11.24-9.49,18.34-9.49c7.25,0,12.86,2.8,16.84,8.39c3.97,5.59,5.96,13.1,5.96,22.51c0,0.93-0.04,1.89-0.12,2.89
			c-0.08,1.16-0.54,2.12-1.39,2.89c-0.85,0.77-1.89,1.16-3.12,1.16h-30.32c-0.31,0-0.46,0.19-0.46,0.58
			c0.46,6.1,2.14,10.84,5.03,14.24s6.65,5.09,11.28,5.09c2.93,0,5.67-0.58,8.22-1.74c1-0.46,2.06-0.54,3.18-0.23
			c1.12,0.31,1.95,0.96,2.49,1.97l0.69,1.39c0.62,1,0.77,2.06,0.46,3.18c-0.31,1.12-0.97,1.95-1.97,2.49
			C426.14,207.21,421.21,208.36,415.96,208.36z M401.15,167.86c0,0.31,0.15,0.46,0.46,0.46h22.8c0.39,0,0.58-0.15,0.58-0.46
			c-0.08-5.56-1.04-9.8-2.89-12.73s-4.51-4.4-7.99-4.4c-3.24,0-6.1,1.5-8.56,4.51C402.61,158.95,401.15,163.15,401.15,167.86z"/>
		<path class="st3" d="M210.59,96.48c-7.18,0-13.15-2.93-17.94-8.8c-4.79-5.86-7.18-14.27-7.18-25.23s2.39-19.4,7.18-25.35
			c4.78-5.94,10.76-8.91,17.94-8.91c7.18,0,13.15,2.97,17.94,8.91c4.78,5.94,7.18,14.39,7.18,25.35c0,5.56-0.68,10.53-2.03,14.93
			c-1.35,4.4-3.18,7.97-5.5,10.71c-2.31,2.74-4.96,4.82-7.93,6.25C217.29,95.76,214.06,96.48,210.59,96.48z M210.59,85.25
			c3.32,0,5.98-1.97,7.99-5.9c2.01-3.93,3.01-9.57,3.01-16.9c0-7.41-1-13.1-3.01-17.07c-2.01-3.97-4.67-5.96-7.99-5.96
			c-3.4,0-6.08,1.99-8.04,5.96c-1.97,3.97-2.95,9.66-2.95,17.07s0.98,13.06,2.95,16.95C204.52,83.3,207.2,85.25,210.59,85.25z"/>
		<path class="st3" d="M294.14,3.89c1.08,0.31,1.89,1,2.43,2.08c0.23,0.62,0.35,1.27,0.35,1.97c0,0.46-0.04,0.93-0.12,1.39
			l-0.69,2.31c-0.31,1-0.95,1.72-1.91,2.14c-0.97,0.42-1.99,0.52-3.07,0.29c-1.7-0.54-3.51-0.81-5.44-0.81
			c-3.4,0-5.98,1.06-7.75,3.18c-1.78,2.12-2.66,5.15-2.66,9.08v3.59c0,0.39,0.19,0.58,0.58,0.58h12.5c1.16,0,2.14,0.41,2.95,1.22
			c0.81,0.81,1.22,1.76,1.22,2.84v2.78c0,1.16-0.41,2.14-1.22,2.95s-1.79,1.22-2.95,1.22h-12.5c-0.39,0-0.58,0.15-0.58,0.46v49.76
			c0,1.16-0.41,2.14-1.22,2.95c-0.81,0.81-1.76,1.22-2.84,1.22h-5.67c-1.16,0-2.14-0.41-2.95-1.22c-0.81-0.81-1.22-1.79-1.22-2.95
			V41.16c0-0.31-0.16-0.46-0.46-0.46h-8.45c-1.16,0-2.12-0.41-2.89-1.22c-0.77-0.81-1.16-1.79-1.16-2.95v-2.08
			c0-1.16,0.39-2.14,1.16-2.95c0.77-0.81,1.74-1.25,2.89-1.33l8.45-0.46c0.31,0,0.46-0.19,0.46-0.58v-3.59
			c0-7.18,1.87-12.85,5.61-17.01c3.74-4.17,9.39-6.25,16.95-6.25C287.42,2.27,290.82,2.81,294.14,3.89z"/>
		<path class="st3" d="M341.32,96.48c-14.12,0-21.18-8.14-21.18-24.42v-30.9c0-0.31-0.19-0.46-0.58-0.46h-8.22
			c-1.08,0-2.03-0.41-2.84-1.22s-1.22-1.79-1.22-2.95v-2.2c0-1.16,0.41-2.14,1.22-2.95s1.75-1.25,2.84-1.33l8.8-0.35
			c0.39,0,0.58-0.19,0.58-0.58L322,15.58c0.08-1.16,0.54-2.12,1.39-2.89c0.85-0.77,1.89-1.16,3.12-1.16h3.24
			c1.16,0,2.12,0.41,2.89,1.22c0.77,0.81,1.16,1.79,1.16,2.95v13.42c0,0.39,0.19,0.58,0.58,0.58h16.43c1.16,0,2.14,0.41,2.95,1.22
			c0.81,0.81,1.22,1.76,1.22,2.84v2.78c0,1.16-0.41,2.14-1.22,2.95c-0.81,0.81-1.79,1.22-2.95,1.22h-16.43
			c-0.39,0-0.58,0.15-0.58,0.46v31.13c0,4.47,0.89,7.83,2.66,10.07c1.77,2.24,4.55,3.36,8.33,3.36c1.85,0,3.66-0.27,5.44-0.81
			c1.08-0.31,2.1-0.21,3.07,0.29c0.96,0.5,1.56,1.25,1.79,2.26l0.58,1.97c0.08,0.46,0.12,0.89,0.12,1.27c0,0.69-0.16,1.39-0.46,2.08
			c-0.54,1-1.39,1.66-2.55,1.97C348.85,95.9,345.03,96.48,341.32,96.48z"/>
		<g>
			<path class="st3" d="M324.9,229.68c-1.16,0-2.14-0.41-2.95-1.22c-0.81-0.81-1.22-1.79-1.22-2.95v-81.48
				c0-1.08,0.41-2.03,1.22-2.84c0.81-0.81,1.79-1.22,2.95-1.22h2.89c1.23,0,2.3,0.39,3.18,1.16c0.89,0.77,1.41,1.74,1.56,2.89
				l0.58,3.01c0,0.16,0.08,0.23,0.23,0.23c0.15,0,0.27-0.04,0.35-0.12c4.4-5.71,9.14-8.56,14.24-8.56c6.48,0,11.46,2.85,14.93,8.56
				c3.47,5.71,5.21,13.85,5.21,24.42c0,11.34-2.08,20.08-6.25,26.21c-4.17,6.13-9.34,9.2-15.51,9.2c-4.24,0-8.22-2.08-11.92-6.25
				c-0.08,0-0.16,0-0.23,0c-0.08,0-0.12,0.08-0.12,0.23l0.46,10.3v14.24c0,1.16-0.41,2.14-1.22,2.95c-0.81,0.81-1.76,1.22-2.84,1.22
				H324.9z M342.96,195.54c3.16,0,5.77-2.03,7.81-6.08c2.04-4.05,3.07-9.9,3.07-17.53c0-14.74-3.24-22.1-9.72-22.1
				c-3.17,0-6.25,2.51-9.26,7.52c-0.23,0.23-0.35,0.54-0.35,0.93v31.48c0,0.39,0.12,0.73,0.35,1.04
				C337.17,193.96,339.87,195.54,342.96,195.54z"/>
		</g>
	</g>
</g>
<g id="Layer_1" class="st7">
</g>
</svg>
